M48
; DRILL file {KiCad 9.0.7} date 2026-02-26T16:44:01-0600
; FORMAT={-:-/ absolute / metric / decimal}
; #@! TF.CreationDate,2026-02-26T16:44:01-06:00
; #@! TF.GenerationSoftware,Kicad,Pcbnew,9.0.7
; #@! TF.FileFunction,Plated,1,2,PTH
FMAT,2
METRIC
; #@! TA.AperFunction,Plated,PTH,ViaDrill
T1C0.300
; #@! TA.AperFunction,Plated,PTH,ViaDrill
T2C0.400
; #@! TA.AperFunction,Plated,PTH,ComponentDrill
T3C0.800
; #@! TA.AperFunction,Plated,PTH,ComponentDrill
T4C0.850
; #@! TA.AperFunction,Plated,PTH,ComponentDrill
T5C0.950
; #@! TA.AperFunction,Plated,PTH,ComponentDrill
T6C1.000
; #@! TA.AperFunction,Plated,PTH,ComponentDrill
T7C1.100
%
G90
G05
T1
X47.834Y-172.213
X53.677Y-204.747
X53.977Y-171.474
X54.571Y-195.165
X54.958Y-189.128
X55.802Y-171.907
X57.137Y-164.447
X57.181Y-169.001
X57.641Y-89.282
X58.855Y-183.622
X60.436Y-189.128
X61.948Y-175.351
X62.004Y-75.526
X62.032Y-166.783
X62.125Y-174.081
X63.128Y-169.462
X65.344Y-196.552
X66.506Y-196.709
X68.022Y-195.31
X69.088Y-185.928
X69.151Y-165.85
X70.267Y-78.559
X70.575Y-200.886
X71.818Y-172.669
X73.587Y-81.879
X73.66Y-185.166
X76.291Y-205.656
X77.216Y-182.88
X77.352Y-160.82
X78.739Y-160.219
X79.076Y-198.969
X79.783Y-150.788
X80.319Y-54.461
X81.915Y-206.556
X83.566Y-88.646
X86.868Y-86.36
X90.299Y-86.49
X91.087Y-206.728
X97.194Y-78.316
X97.282Y-172.72
X98.837Y-193.108
X99.314Y-175.9
X99.831Y-164.447
X101.196Y-73.162
X101.372Y-57.427
X104.534Y-117.174
X104.707Y-155.428
X106.356Y-182.115
X108.637Y-193.108
X109.914Y-186.614
X110.94Y-72.551
X110.998Y-180.34
X111.072Y-81.879
X113.96Y-86.49
X122.266Y-195.823
X122.448Y-70.401
X124.423Y-96.338
X124.682Y-69.608
X126.209Y-172.022
X126.805Y-154.011
X127.757Y-152.21
X129.276Y-47.868
X129.829Y-199.774
X132.023Y-214.498
X133.379Y-88.938
X133.897Y-188.865
X134.519Y-62.936
X137.376Y-60.927
X138.773Y-217.78
X139.32Y-78.199
X140.937Y-82.113
X142.022Y-82.131
X146.05Y-114.114
X146.292Y-168.31
X149.164Y-174.718
X160.635Y-175.764
X160.815Y-72.282
X162.377Y-83.269
X164.302Y-55.461
X164.369Y-168.284
X166.213Y-200.589
X167.391Y-81.539
X168.433Y-110.847
X168.818Y-64.091
X169.578Y-62.482
X172.981Y-151.149
X174.151Y-86.394
X176.513Y-93.932
X176.573Y-74.633
X176.616Y-49.864
X178.3Y-164.866
X178.349Y-75.657
X180.133Y-161.963
X180.506Y-102.221
X181.093Y-91.105
X181.119Y-78.501
X181.422Y-83.451
X182.031Y-68.366
X182.474Y-97.716
X182.712Y-94.941
X186.193Y-98.244
X186.935Y-96.498
X187.234Y-91.105
X187.475Y-71.748
X187.96Y-165.862
X189.104Y-93.799
X190.448Y-79.624
X191.533Y-96.031
X191.717Y-70.866
X191.899Y-100.61
X192.024Y-69.342
X193.494Y-75.201
X193.598Y-101.21
X194.311Y-94.487
X195.089Y-84.311
X195.488Y-97.358
X197.029Y-74.055
X197.819Y-171.435
X201.769Y-77.669
X208.371Y-183.261
X217.17Y-48.768
X247.566Y-120.073
X250.604Y-112.5
X251.747Y-107.359
X251.879Y-115.062
X255.065Y-130.826
X257.358Y-136.364
X257.556Y-160.02
X258.103Y-123.48
X258.572Y-137.004
X268.029Y-170.171
X272.294Y-163.927
T2
X48.317Y-81.45
X57.15Y-199.898
X57.245Y-81.45
X57.404Y-209.296
X59.565Y-181.157
X59.993Y-194.077
X60.479Y-201.119
X60.96Y-172.72
X60.96Y-175.26
X61.468Y-205.486
X62.043Y-185.858
X62.353Y-197.217
X62.459Y-176.621
X62.484Y-177.8
X65.024Y-180.34
X65.406Y-169.672
X71.882Y-191.516
X80.418Y-180.649
X89.11Y-180.649
X98.044Y-83.566
X107.188Y-83.566
X115.838Y-79.98
X122.188Y-76.566
X122.243Y-73.575
X169.841Y-76.901
X171.968Y-79.115
X183.642Y-80.334
X188.468Y-74.483
X190.015Y-90.149
X191.034Y-110.157
X191.24Y-99.514
X191.962Y-67.954
X192.456Y-87.708
X201.574Y-79.83
X206.296Y-74.896
X217.17Y-63.754
X217.692Y-103.901
X244.249Y-121.949
X252.922Y-111.444
X255.398Y-132.714
X256.804Y-143.127
X274.565Y-160.274
T3
X35.134Y-184.967
X35.134Y-187.507
X35.134Y-190.047
X35.134Y-192.587
X35.134Y-195.127
X35.134Y-197.667
X35.134Y-200.207
X35.134Y-202.747
X47.834Y-184.967
X47.834Y-187.507
X47.834Y-190.047
X47.834Y-192.587
X47.834Y-195.127
X47.834Y-197.667
X47.834Y-200.207
X47.834Y-202.747
X202.709Y-70.094
X202.709Y-82.794
X205.249Y-70.094
X205.249Y-82.794
X207.789Y-70.094
X207.789Y-82.794
X210.329Y-70.094
X210.329Y-82.794
X212.869Y-70.094
X212.869Y-82.794
X215.409Y-70.094
X215.409Y-82.794
X217.949Y-70.094
X217.949Y-82.794
X220.489Y-70.094
X220.489Y-82.794
X246.69Y-137.878
X250.19Y-137.878
X255.557Y-112.903
X257.557Y-112.903
T4
X62.068Y-154.567
X62.068Y-159.567
X196.359Y-54.142
X196.359Y-59.142
X248.746Y-155.321
X253.746Y-155.321
T5
X36.414Y-171.251
X36.414Y-173.751
X36.414Y-176.251
X218.965Y-54.61
X218.965Y-57.11
X218.965Y-59.61
T6
X34.798Y-113.284
X34.798Y-115.824
X35.144Y-154.487
X35.144Y-159.821
X35.37Y-212.99
X35.37Y-215.53
X37.684Y-154.487
X37.684Y-159.821
X40.224Y-154.487
X40.224Y-159.821
X42.764Y-154.487
X42.764Y-159.821
X44.467Y-42.672
X44.467Y-45.212
X45.304Y-154.487
X47.844Y-154.487
X50.384Y-154.487
X50.5Y-142.398
X50.5Y-144.938
X58.297Y-113.284
X58.297Y-115.824
X58.865Y-212.99
X58.865Y-215.53
X72.686Y-42.692
X72.686Y-45.232
X81.796Y-113.284
X81.796Y-115.824
X82.233Y-212.99
X82.233Y-215.53
X91.877Y-142.378
X91.877Y-144.918
X105.295Y-113.284
X105.295Y-115.824
X105.728Y-212.99
X105.728Y-215.53
X114.596Y-42.672
X114.596Y-45.212
X120.079Y-142.378
X120.079Y-144.918
X128.795Y-113.284
X128.795Y-115.824
X129.223Y-212.99
X129.223Y-215.53
X140.999Y-42.672
X140.999Y-45.212
X152.294Y-113.284
X152.294Y-115.824
X152.718Y-212.99
X152.718Y-215.53
X161.989Y-142.378
X161.989Y-144.918
X167.403Y-42.672
X167.403Y-45.212
X175.793Y-113.284
X175.793Y-115.824
X176.213Y-212.99
X176.213Y-215.53
X188.405Y-142.378
X188.405Y-144.918
X199.153Y-113.284
X199.153Y-115.824
X199.708Y-212.99
X199.708Y-215.53
X203.217Y-92.964
X203.217Y-102.362
X205.757Y-92.964
X205.757Y-102.362
X208.297Y-92.964
X208.297Y-102.362
X208.821Y-42.672
X208.821Y-45.212
X210.837Y-92.964
X210.837Y-102.362
X213.377Y-102.362
X214.821Y-142.378
X214.821Y-144.918
X215.917Y-102.362
X218.457Y-102.362
X222.652Y-113.284
X222.652Y-115.824
X223.203Y-212.99
X223.203Y-215.53
X246.104Y-100.286
X246.104Y-102.826
X246.634Y-168.021
X249.174Y-168.021
X251.714Y-168.021
X254.254Y-168.021
X256.794Y-168.021
X259.334Y-168.021
X261.874Y-168.021
X264.11Y-100.193
X264.11Y-102.733
X264.11Y-105.273
X264.11Y-107.813
X264.11Y-110.353
X264.11Y-112.893
X264.11Y-115.433
X264.11Y-117.973
X264.11Y-120.513
X264.11Y-123.053
X264.11Y-125.593
X264.11Y-128.133
X264.11Y-130.673
X264.11Y-133.213
X264.11Y-135.753
X264.11Y-138.293
X264.11Y-140.833
X264.11Y-143.373
X264.11Y-145.913
X264.11Y-148.453
X264.11Y-150.993
X264.11Y-153.533
X264.11Y-156.073
X264.11Y-158.613
X271.755Y-100.193
X271.755Y-102.733
X271.755Y-105.273
X271.755Y-107.813
X271.755Y-110.353
X271.755Y-112.893
X271.755Y-115.433
X271.755Y-117.973
X271.755Y-120.513
X271.755Y-123.053
X271.755Y-125.593
X271.755Y-128.133
X271.755Y-130.673
X271.755Y-133.213
X271.755Y-135.753
X271.755Y-138.293
X271.755Y-140.833
X271.755Y-143.373
X271.755Y-145.913
X271.755Y-148.453
X271.755Y-150.993
X271.755Y-153.533
X271.755Y-156.073
X271.755Y-158.613
X282.702Y-168.021
X285.242Y-168.021
X286.995Y-100.193
X286.995Y-102.733
X286.995Y-105.273
X286.995Y-107.813
X286.995Y-110.353
X286.995Y-112.893
X286.995Y-115.433
X286.995Y-117.973
X286.995Y-120.513
X286.995Y-123.053
X286.995Y-125.593
X286.995Y-128.133
X286.995Y-130.673
X286.995Y-133.213
X286.995Y-135.753
X286.995Y-138.293
X286.995Y-140.833
X286.995Y-143.373
X286.995Y-145.913
X286.995Y-148.453
X286.995Y-150.993
X286.995Y-153.533
X286.995Y-156.073
X286.995Y-158.613
X287.782Y-168.021
X290.322Y-168.021
X292.862Y-168.021
X294.615Y-100.193
X294.615Y-102.733
X294.615Y-105.273
X294.615Y-107.813
X294.615Y-110.353
X294.615Y-112.893
X294.615Y-115.433
X294.615Y-117.973
X294.615Y-120.513
X294.615Y-123.053
X294.615Y-125.593
X294.615Y-128.133
X294.615Y-130.673
X294.615Y-133.213
X294.615Y-135.753
X294.615Y-138.293
X294.615Y-140.833
X294.615Y-143.373
X294.615Y-145.913
X294.615Y-148.453
X294.615Y-150.993
X294.615Y-153.533
X294.615Y-156.073
X294.615Y-158.613
X295.402Y-168.021
X297.942Y-168.021
T7
X37.609Y-70.104
X37.609Y-92.898
X40.149Y-70.104
X40.149Y-92.898
X42.689Y-70.104
X42.689Y-92.898
X55.86Y-70.104
X58.4Y-70.104
X58.902Y-92.898
X60.94Y-70.104
X61.442Y-92.898
X63.982Y-92.898
X74.112Y-70.104
X76.652Y-70.104
X77.054Y-169.81
X77.054Y-191.571
X79.192Y-70.104
X79.594Y-169.81
X79.594Y-191.571
X80.196Y-92.898
X82.134Y-169.81
X82.134Y-191.571
X82.736Y-92.898
X85.276Y-92.898
X92.364Y-70.104
X94.904Y-70.104
X96.801Y-169.81
X97.444Y-70.104
X99.341Y-169.81
X100.092Y-191.571
X101.49Y-92.898
X101.881Y-169.81
X102.632Y-191.571
X104.03Y-92.898
X105.172Y-191.571
X106.57Y-92.898
X110.616Y-70.104
X113.156Y-70.104
X115.696Y-70.104
X116.548Y-169.81
X119.088Y-169.81
X121.628Y-169.81
X122.783Y-92.898
X123.131Y-191.571
X125.323Y-92.898
X125.671Y-191.571
X127.863Y-92.898
X128.211Y-191.571
X128.867Y-70.104
X131.407Y-70.104
X133.947Y-70.104
X136.296Y-169.81
X138.836Y-169.81
X141.376Y-169.81
X144.077Y-92.898
X146.17Y-191.571
X146.617Y-92.898
X147.119Y-70.104
X148.71Y-191.571
X149.157Y-92.898
X149.659Y-70.104
X151.25Y-191.571
X152.199Y-70.104
X156.043Y-169.81
X158.583Y-169.81
X161.123Y-169.81
X165.371Y-70.104
X165.371Y-92.898
X167.911Y-70.104
X167.911Y-92.898
X169.208Y-191.571
X170.451Y-70.104
X170.451Y-92.898
X171.748Y-191.571
X174.288Y-191.571
X175.791Y-169.81
X178.331Y-169.81
X180.871Y-169.81
X192.247Y-191.571
X194.787Y-191.571
X195.538Y-169.81
X197.327Y-191.571
X198.078Y-169.81
X200.618Y-169.81
X215.286Y-169.81
X215.286Y-191.571
X217.826Y-169.81
X217.826Y-191.571
X220.366Y-169.81
X220.366Y-191.571
M30
