%TF.GenerationSoftware,KiCad,Pcbnew,9.0.7*%
%TF.CreationDate,2026-02-26T16:43:08-06:00*%
%TF.ProjectId,Vocal2Piano,566f6361-6c32-4506-9961-6e6f2e6b6963,v4.0*%
%TF.SameCoordinates,Original*%
%TF.FileFunction,Paste,Top*%
%TF.FilePolarity,Positive*%
%FSLAX46Y46*%
G04 Gerber Fmt 4.6, Leading zero omitted, Abs format (unit mm)*
G04 Created by KiCad (PCBNEW 9.0.7) date 2026-02-26 16:43:08*
%MOMM*%
%LPD*%
G01*
G04 APERTURE LIST*
G04 Aperture macros list*
%AMRoundRect*
0 Rectangle with rounded corners*
0 $1 Rounding radius*
0 $2 $3 $4 $5 $6 $7 $8 $9 X,Y pos of 4 corners*
0 Add a 4 corners polygon primitive as box body*
4,1,4,$2,$3,$4,$5,$6,$7,$8,$9,$2,$3,0*
0 Add four circle primitives for the rounded corners*
1,1,$1+$1,$2,$3*
1,1,$1+$1,$4,$5*
1,1,$1+$1,$6,$7*
1,1,$1+$1,$8,$9*
0 Add four rect primitives between the rounded corners*
20,1,$1+$1,$2,$3,$4,$5,0*
20,1,$1+$1,$4,$5,$6,$7,0*
20,1,$1+$1,$6,$7,$8,$9,0*
20,1,$1+$1,$8,$9,$2,$3,0*%
G04 Aperture macros list end*
%ADD10C,0.000000*%
%ADD11R,2.200000X1.500000*%
%ADD12RoundRect,0.250000X-0.262500X-0.450000X0.262500X-0.450000X0.262500X0.450000X-0.262500X0.450000X0*%
%ADD13RoundRect,0.250000X-0.250000X-0.475000X0.250000X-0.475000X0.250000X0.475000X-0.250000X0.475000X0*%
%ADD14RoundRect,0.250000X1.400000X1.000000X-1.400000X1.000000X-1.400000X-1.000000X1.400000X-1.000000X0*%
%ADD15RoundRect,0.250000X0.650000X-1.000000X0.650000X1.000000X-0.650000X1.000000X-0.650000X-1.000000X0*%
%ADD16RoundRect,0.250000X0.325000X0.650000X-0.325000X0.650000X-0.325000X-0.650000X0.325000X-0.650000X0*%
%ADD17O,1.450000X0.599999*%
%ADD18R,1.549999X0.599999*%
%ADD19RoundRect,0.250000X0.262500X0.450000X-0.262500X0.450000X-0.262500X-0.450000X0.262500X-0.450000X0*%
%ADD20RoundRect,0.218750X-0.218750X-0.256250X0.218750X-0.256250X0.218750X0.256250X-0.218750X0.256250X0*%
G04 APERTURE END LIST*
D10*
%TO.C,U5*%
G36*
X249204000Y-117246999D02*
G01*
X246604000Y-117246999D01*
X246604000Y-114147001D01*
X249204000Y-114147001D01*
X249204000Y-117246999D01*
G37*
%TD*%
D11*
%TO.C,L1*%
X256794000Y-99441000D03*
X256794000Y-105841000D03*
%TD*%
D12*
%TO.C,R19*%
X53658418Y-198348767D03*
X55483418Y-198348767D03*
%TD*%
D13*
%TO.C,C4*%
X186697417Y-81715000D03*
X188597417Y-81715000D03*
%TD*%
D12*
%TO.C,R14*%
X192912881Y-91992000D03*
X194737881Y-91992000D03*
%TD*%
%TO.C,R23*%
X67248168Y-198348767D03*
X69073168Y-198348767D03*
%TD*%
%TO.C,R21*%
X67248168Y-190450101D03*
X69073168Y-190450101D03*
%TD*%
%TO.C,R25*%
X53977043Y-169098812D03*
X55802043Y-169098812D03*
%TD*%
D14*
%TO.C,D31*%
X247650000Y-128749000D03*
X247650000Y-121949000D03*
%TD*%
D15*
%TO.C,D14*%
X171466667Y-58642000D03*
X171466667Y-54642000D03*
%TD*%
D12*
%TO.C,R9*%
X193263667Y-81685000D03*
X195088667Y-81685000D03*
%TD*%
D15*
%TO.C,D24*%
X76291543Y-158010812D03*
X76291543Y-154010812D03*
%TD*%
D16*
%TO.C,C9*%
X258572000Y-134332800D03*
X255622000Y-134332800D03*
%TD*%
D15*
%TO.C,D21*%
X179887257Y-202968812D03*
X179887257Y-198968812D03*
%TD*%
D12*
%TO.C,R45*%
X170441310Y-80264000D03*
X172266310Y-80264000D03*
%TD*%
%TO.C,R58*%
X200049647Y-180648812D03*
X201874647Y-180648812D03*
%TD*%
%TO.C,R26*%
X53977043Y-173108145D03*
X55802043Y-173108145D03*
%TD*%
D15*
%TO.C,D20*%
X159168114Y-202968812D03*
X159168114Y-198968812D03*
%TD*%
D12*
%TO.C,R50*%
X116766578Y-180648812D03*
X118591578Y-180648812D03*
%TD*%
%TO.C,R11*%
X180206167Y-96031333D03*
X182031167Y-96031333D03*
%TD*%
%TO.C,R35*%
X74183351Y-80264000D03*
X76008351Y-80264000D03*
%TD*%
%TO.C,R4*%
X180206167Y-77645667D03*
X182031167Y-77645667D03*
%TD*%
D15*
%TO.C,D13*%
X149030000Y-58642000D03*
X149030000Y-54642000D03*
%TD*%
D13*
%TO.C,C5*%
X186522024Y-104140000D03*
X188422024Y-104140000D03*
%TD*%
D15*
%TO.C,D12*%
X126593334Y-58642000D03*
X126593334Y-54642000D03*
%TD*%
D12*
%TO.C,R28*%
X53977043Y-181186812D03*
X55802043Y-181186812D03*
%TD*%
D13*
%TO.C,C7*%
X60609543Y-181156812D03*
X62509543Y-181156812D03*
%TD*%
D12*
%TO.C,R31*%
X67248168Y-177177479D03*
X69073168Y-177177479D03*
%TD*%
D15*
%TO.C,D19*%
X138448972Y-202968812D03*
X138448972Y-198968812D03*
%TD*%
%TO.C,D5*%
X113663524Y-104362000D03*
X113663524Y-100362000D03*
%TD*%
D12*
%TO.C,R7*%
X193263667Y-73606333D03*
X195088667Y-73606333D03*
%TD*%
%TO.C,R24*%
X67248168Y-202388101D03*
X69073168Y-202388101D03*
%TD*%
%TO.C,R38*%
X103060739Y-80264000D03*
X104885739Y-80264000D03*
%TD*%
D17*
%TO.C,U6*%
X58669419Y-190202101D03*
X58669419Y-191472101D03*
X58669419Y-192742101D03*
X58669419Y-194012101D03*
X58669419Y-195282101D03*
X58669419Y-196552101D03*
X58669419Y-197822101D03*
X58669419Y-199092101D03*
X64119418Y-199092101D03*
X64119418Y-197822101D03*
X64119418Y-196552101D03*
X64119418Y-195282101D03*
X64119418Y-194012101D03*
X64119418Y-192742101D03*
X64119418Y-191472101D03*
X64119418Y-190202101D03*
%TD*%
D18*
%TO.C,U5*%
X245204000Y-113792000D03*
X245204000Y-115062000D03*
X245204000Y-116332000D03*
X245204000Y-117602000D03*
X250604000Y-117602000D03*
X250604000Y-116332000D03*
X250604000Y-115062000D03*
X250604000Y-113792000D03*
%TD*%
D12*
%TO.C,R5*%
X180206167Y-81685000D03*
X182031167Y-81685000D03*
%TD*%
%TO.C,R17*%
X53635668Y-190450101D03*
X55460668Y-190450101D03*
%TD*%
%TO.C,R6*%
X193263667Y-69567000D03*
X195088667Y-69567000D03*
%TD*%
%TO.C,R44*%
X160815514Y-80264000D03*
X162640514Y-80264000D03*
%TD*%
%TO.C,R29*%
X67248168Y-169098812D03*
X69073168Y-169098812D03*
%TD*%
D19*
%TO.C,R61*%
X258629500Y-147320600D03*
X256804500Y-147320600D03*
%TD*%
D12*
%TO.C,R53*%
X147997729Y-180648812D03*
X149822729Y-180648812D03*
%TD*%
%TO.C,R40*%
X122312330Y-80264000D03*
X124137330Y-80264000D03*
%TD*%
%TO.C,R41*%
X131938126Y-80264000D03*
X133763126Y-80264000D03*
%TD*%
%TO.C,R63*%
X256804500Y-121285000D03*
X258629500Y-121285000D03*
%TD*%
%TO.C,R55*%
X168818496Y-180648812D03*
X170643496Y-180648812D03*
%TD*%
%TO.C,R52*%
X137587345Y-180648812D03*
X139412345Y-180648812D03*
%TD*%
%TO.C,R42*%
X141563922Y-80264000D03*
X143388922Y-80264000D03*
%TD*%
%TO.C,R1*%
X180206167Y-69567000D03*
X182031167Y-69567000D03*
%TD*%
%TO.C,R8*%
X193263667Y-77645667D03*
X195088667Y-77645667D03*
%TD*%
%TO.C,R3*%
X180206167Y-73606333D03*
X182031167Y-73606333D03*
%TD*%
D17*
%TO.C,U3*%
X184565382Y-91894000D03*
X184565382Y-93164000D03*
X184565382Y-94434000D03*
X184565382Y-95704000D03*
X184565382Y-96974000D03*
X184565382Y-98244000D03*
X184565382Y-99514000D03*
X184565382Y-100784000D03*
X190015381Y-100784000D03*
X190015381Y-99514000D03*
X190015381Y-98244000D03*
X190015381Y-96974000D03*
X190015381Y-95704000D03*
X190015381Y-94434000D03*
X190015381Y-93164000D03*
X190015381Y-91894000D03*
%TD*%
D12*
%TO.C,R12*%
X180206167Y-100070667D03*
X182031167Y-100070667D03*
%TD*%
%TO.C,R48*%
X95945810Y-180648812D03*
X97770810Y-180648812D03*
%TD*%
D15*
%TO.C,D17*%
X97010686Y-202968812D03*
X97010686Y-198968812D03*
%TD*%
%TO.C,D26*%
X124636210Y-158010812D03*
X124636210Y-154010812D03*
%TD*%
%TO.C,D6*%
X132931238Y-104362000D03*
X132931238Y-100362000D03*
%TD*%
D12*
%TO.C,R43*%
X151189718Y-80264000D03*
X153014718Y-80264000D03*
%TD*%
%TO.C,R46*%
X75125043Y-180648812D03*
X76950043Y-180648812D03*
%TD*%
D15*
%TO.C,D23*%
X221325543Y-202968812D03*
X221325543Y-198968812D03*
%TD*%
D17*
%TO.C,U2*%
X184997666Y-69469000D03*
X184997666Y-70739000D03*
X184997666Y-72009000D03*
X184997666Y-73279000D03*
X184997666Y-74549000D03*
X184997666Y-75819000D03*
X184997666Y-77089000D03*
X184997666Y-78359000D03*
X190447665Y-78359000D03*
X190447665Y-77089000D03*
X190447665Y-75819000D03*
X190447665Y-74549000D03*
X190447665Y-73279000D03*
X190447665Y-72009000D03*
X190447665Y-70739000D03*
X190447665Y-69469000D03*
%TD*%
D12*
%TO.C,R2*%
X35680167Y-80264000D03*
X37505167Y-80264000D03*
%TD*%
D15*
%TO.C,D16*%
X76291543Y-202968812D03*
X76291543Y-198968812D03*
%TD*%
D19*
%TO.C,R62*%
X258629500Y-140926700D03*
X256804500Y-140926700D03*
%TD*%
D15*
%TO.C,D1*%
X36592667Y-104362000D03*
X36592667Y-100362000D03*
%TD*%
D12*
%TO.C,R49*%
X106356194Y-180648812D03*
X108181194Y-180648812D03*
%TD*%
%TO.C,R51*%
X127176961Y-180648812D03*
X129001961Y-180648812D03*
%TD*%
%TO.C,R32*%
X45305963Y-80264000D03*
X47130963Y-80264000D03*
%TD*%
D15*
%TO.C,D3*%
X75128096Y-104362000D03*
X75128096Y-100362000D03*
%TD*%
%TO.C,D9*%
X59283334Y-58642000D03*
X59283334Y-54642000D03*
%TD*%
D12*
%TO.C,R34*%
X64557555Y-80264000D03*
X66382555Y-80264000D03*
%TD*%
%TO.C,R47*%
X85535427Y-180648812D03*
X87360427Y-180648812D03*
%TD*%
%TO.C,R22*%
X67248168Y-194309434D03*
X69073168Y-194309434D03*
%TD*%
D15*
%TO.C,D30*%
X221325543Y-158010812D03*
X221325543Y-154010812D03*
%TD*%
%TO.C,D29*%
X197153210Y-158010812D03*
X197153210Y-154010812D03*
%TD*%
D12*
%TO.C,R20*%
X53658418Y-202388101D03*
X55483418Y-202388101D03*
%TD*%
%TO.C,R27*%
X53977043Y-177147478D03*
X55802043Y-177147478D03*
%TD*%
D15*
%TO.C,D18*%
X117729829Y-202968812D03*
X117729829Y-198968812D03*
%TD*%
D12*
%TO.C,R59*%
X210460030Y-180648812D03*
X212285030Y-180648812D03*
%TD*%
D20*
%TO.C,D34*%
X245086501Y-109175836D03*
X246661501Y-109175836D03*
%TD*%
D12*
%TO.C,R54*%
X158408112Y-180648812D03*
X160233112Y-180648812D03*
%TD*%
D15*
%TO.C,D11*%
X104156667Y-58642000D03*
X104156667Y-54642000D03*
%TD*%
D17*
%TO.C,U4*%
X58756794Y-169000812D03*
X58756794Y-170270812D03*
X58756794Y-171540812D03*
X58756794Y-172810812D03*
X58756794Y-174080812D03*
X58756794Y-175350812D03*
X58756794Y-176620812D03*
X58756794Y-177890812D03*
X64206793Y-177890812D03*
X64206793Y-176620812D03*
X64206793Y-175350812D03*
X64206793Y-174080812D03*
X64206793Y-172810812D03*
X64206793Y-171540812D03*
X64206793Y-170270812D03*
X64206793Y-169000812D03*
%TD*%
D15*
%TO.C,D28*%
X172980876Y-158010812D03*
X172980876Y-154010812D03*
%TD*%
%TO.C,D27*%
X148808543Y-158010812D03*
X148808543Y-154010812D03*
%TD*%
D12*
%TO.C,R18*%
X53658418Y-194309434D03*
X55483418Y-194309434D03*
%TD*%
%TO.C,R13*%
X180206167Y-104110000D03*
X182031167Y-104110000D03*
%TD*%
%TO.C,R15*%
X192912881Y-96031333D03*
X194737881Y-96031333D03*
%TD*%
%TO.C,R57*%
X189639263Y-180648812D03*
X191464263Y-180648812D03*
%TD*%
D15*
%TO.C,D4*%
X94395810Y-104362000D03*
X94395810Y-100362000D03*
%TD*%
%TO.C,D10*%
X81720000Y-58642000D03*
X81720000Y-54642000D03*
%TD*%
%TO.C,D8*%
X36846667Y-58642000D03*
X36846667Y-54642000D03*
%TD*%
D12*
%TO.C,R60*%
X220870414Y-180648812D03*
X222695414Y-180648812D03*
%TD*%
D15*
%TO.C,D7*%
X152198953Y-104362000D03*
X152198953Y-100362000D03*
%TD*%
D12*
%TO.C,R10*%
X180206167Y-91992000D03*
X182031167Y-91992000D03*
%TD*%
%TO.C,R16*%
X192912881Y-100070667D03*
X194737881Y-100070667D03*
%TD*%
D15*
%TO.C,D15*%
X171466667Y-104330000D03*
X171466667Y-100330000D03*
%TD*%
%TO.C,D25*%
X100463876Y-158010812D03*
X100463876Y-154010812D03*
%TD*%
%TO.C,D2*%
X55860381Y-104362000D03*
X55860381Y-100362000D03*
%TD*%
D13*
%TO.C,C10*%
X256747000Y-127708900D03*
X258647000Y-127708900D03*
%TD*%
D12*
%TO.C,R30*%
X67248168Y-173083479D03*
X69073168Y-173083479D03*
%TD*%
%TO.C,R56*%
X179228879Y-180648812D03*
X181053879Y-180648812D03*
%TD*%
%TO.C,R36*%
X83809147Y-80264000D03*
X85634147Y-80264000D03*
%TD*%
D13*
%TO.C,C6*%
X60478918Y-202448101D03*
X62378918Y-202448101D03*
%TD*%
D12*
%TO.C,R37*%
X93434943Y-80264000D03*
X95259943Y-80264000D03*
%TD*%
%TO.C,R33*%
X54931759Y-80264000D03*
X56756759Y-80264000D03*
%TD*%
%TO.C,R39*%
X112686534Y-80264000D03*
X114511534Y-80264000D03*
%TD*%
D15*
%TO.C,D22*%
X200606400Y-202968812D03*
X200606400Y-198968812D03*
%TD*%
M02*
