%TF.GenerationSoftware,KiCad,Pcbnew,9.0.7*%
%TF.CreationDate,2026-02-26T16:43:08-06:00*%
%TF.ProjectId,Vocal2Piano,566f6361-6c32-4506-9961-6e6f2e6b6963,v4.0*%
%TF.SameCoordinates,Original*%
%TF.FileFunction,Soldermask,Bot*%
%TF.FilePolarity,Negative*%
%FSLAX46Y46*%
G04 Gerber Fmt 4.6, Leading zero omitted, Abs format (unit mm)*
G04 Created by KiCad (PCBNEW 9.0.7) date 2026-02-26 16:43:08*
%MOMM*%
%LPD*%
G01*
G04 APERTURE LIST*
G04 Aperture macros list*
%AMRoundRect*
0 Rectangle with rounded corners*
0 $1 Rounding radius*
0 $2 $3 $4 $5 $6 $7 $8 $9 X,Y pos of 4 corners*
0 Add a 4 corners polygon primitive as box body*
4,1,4,$2,$3,$4,$5,$6,$7,$8,$9,$2,$3,0*
0 Add four circle primitives for the rounded corners*
1,1,$1+$1,$2,$3*
1,1,$1+$1,$4,$5*
1,1,$1+$1,$6,$7*
1,1,$1+$1,$8,$9*
0 Add four rect primitives between the rounded corners*
20,1,$1+$1,$2,$3,$4,$5,0*
20,1,$1+$1,$4,$5,$6,$7,0*
20,1,$1+$1,$6,$7,$8,$9,0*
20,1,$1+$1,$8,$9,$2,$3,0*%
G04 Aperture macros list end*
%ADD10R,1.700000X1.700000*%
%ADD11C,1.700000*%
%ADD12C,1.404000*%
%ADD13RoundRect,0.102000X0.600000X-0.600000X0.600000X0.600000X-0.600000X0.600000X-0.600000X-0.600000X0*%
%ADD14RoundRect,0.250000X0.550000X0.550000X-0.550000X0.550000X-0.550000X-0.550000X0.550000X-0.550000X0*%
%ADD15C,1.600000*%
%ADD16RoundRect,0.102000X0.600000X0.600000X-0.600000X0.600000X-0.600000X-0.600000X0.600000X-0.600000X0*%
%ADD17R,1.905000X2.000000*%
%ADD18O,1.905000X2.000000*%
%ADD19R,1.600000X1.600000*%
%ADD20O,1.600000X1.600000*%
%ADD21RoundRect,0.250000X0.725000X-0.600000X0.725000X0.600000X-0.725000X0.600000X-0.725000X-0.600000X0*%
%ADD22O,1.950000X1.700000*%
%ADD23RoundRect,0.250000X-0.725000X0.600000X-0.725000X-0.600000X0.725000X-0.600000X0.725000X0.600000X0*%
G04 APERTURE END LIST*
D10*
%TO.C,J17*%
X105728414Y-212989987D03*
D11*
X105728414Y-215529987D03*
%TD*%
D12*
%TO.C,C1*%
X196358667Y-54142000D03*
D13*
X196358667Y-59142000D03*
%TD*%
D14*
%TO.C,C11*%
X250190000Y-137878000D03*
D15*
X246690000Y-137878000D03*
%TD*%
D10*
%TO.C,J30*%
X35370414Y-212989987D03*
D11*
X35370414Y-215529987D03*
%TD*%
D12*
%TO.C,C3*%
X248746000Y-155321000D03*
D16*
X253746000Y-155321000D03*
%TD*%
D10*
%TO.C,J39*%
X286995000Y-158613000D03*
D11*
X286995000Y-156073000D03*
X286995000Y-153533000D03*
X286995000Y-150993000D03*
X286995000Y-148453000D03*
X286995000Y-145913000D03*
X286995000Y-143373000D03*
X286995000Y-140833000D03*
X286995000Y-138293000D03*
X286995000Y-135753000D03*
X286995000Y-133213000D03*
X286995000Y-130673000D03*
X286995000Y-128133000D03*
X286995000Y-125593000D03*
X286995000Y-123053000D03*
X286995000Y-120513000D03*
X286995000Y-117973000D03*
X286995000Y-115433000D03*
X286995000Y-112893000D03*
X286995000Y-110353000D03*
X286995000Y-107813000D03*
X286995000Y-105273000D03*
X286995000Y-102733000D03*
X286995000Y-100193000D03*
%TD*%
D17*
%TO.C,Q13*%
X128867238Y-70104000D03*
D18*
X131407238Y-70104000D03*
X133947238Y-70104000D03*
%TD*%
D17*
%TO.C,Q21*%
X192246876Y-191570812D03*
D18*
X194786876Y-191570812D03*
X197326876Y-191570812D03*
%TD*%
D17*
%TO.C,Q26*%
X136295829Y-169809987D03*
D18*
X138835829Y-169809987D03*
X141375829Y-169809987D03*
%TD*%
D19*
%TO.C,J31*%
X202708667Y-82794000D03*
D20*
X205248667Y-82794000D03*
X207788667Y-82794000D03*
X210328667Y-82794000D03*
X212868667Y-82794000D03*
X215408667Y-82794000D03*
X217948667Y-82794000D03*
X220488667Y-82794000D03*
X220488667Y-70094000D03*
X217948667Y-70094000D03*
X215408667Y-70094000D03*
X212868667Y-70094000D03*
X210328667Y-70094000D03*
X207788667Y-70094000D03*
X205248667Y-70094000D03*
X202708667Y-70094000D03*
%TD*%
D10*
%TO.C,J41*%
X271755000Y-158613000D03*
D11*
X271755000Y-156073000D03*
X271755000Y-153533000D03*
X271755000Y-150993000D03*
X271755000Y-148453000D03*
X271755000Y-145913000D03*
X271755000Y-143373000D03*
X271755000Y-140833000D03*
X271755000Y-138293000D03*
X271755000Y-135753000D03*
X271755000Y-133213000D03*
X271755000Y-130673000D03*
X271755000Y-128133000D03*
X271755000Y-125593000D03*
X271755000Y-123053000D03*
X271755000Y-120513000D03*
X271755000Y-117973000D03*
X271755000Y-115433000D03*
X271755000Y-112893000D03*
X271755000Y-110353000D03*
X271755000Y-107813000D03*
X271755000Y-105273000D03*
X271755000Y-102733000D03*
X271755000Y-100193000D03*
%TD*%
D10*
%TO.C,J36*%
X203216667Y-92964000D03*
D11*
X205756667Y-92964000D03*
X208296667Y-92964000D03*
X210836667Y-92964000D03*
%TD*%
D10*
%TO.C,J4*%
X105295500Y-113284000D03*
D11*
X105295500Y-115824000D03*
%TD*%
D12*
%TO.C,C2*%
X62067543Y-154566812D03*
D13*
X62067543Y-159566812D03*
%TD*%
D10*
%TO.C,J25*%
X161989414Y-142377987D03*
D11*
X161989414Y-144917987D03*
%TD*%
D10*
%TO.C,J22*%
X223203414Y-212989987D03*
D11*
X223203414Y-215529987D03*
%TD*%
D10*
%TO.C,J16*%
X82233414Y-212989987D03*
D11*
X82233414Y-215529987D03*
%TD*%
D10*
%TO.C,J26*%
X188405414Y-142377987D03*
D11*
X188405414Y-144917987D03*
%TD*%
D10*
%TO.C,J44*%
X264110000Y-158613000D03*
D11*
X264110000Y-156073000D03*
X264110000Y-153533000D03*
X264110000Y-150993000D03*
X264110000Y-148453000D03*
X264110000Y-145913000D03*
X264110000Y-143373000D03*
X264110000Y-140833000D03*
X264110000Y-138293000D03*
X264110000Y-135753000D03*
X264110000Y-133213000D03*
X264110000Y-130673000D03*
X264110000Y-128133000D03*
X264110000Y-125593000D03*
X264110000Y-123053000D03*
X264110000Y-120513000D03*
X264110000Y-117973000D03*
X264110000Y-115433000D03*
X264110000Y-112893000D03*
X264110000Y-110353000D03*
X264110000Y-107813000D03*
X264110000Y-105273000D03*
X264110000Y-102733000D03*
X264110000Y-100193000D03*
%TD*%
D10*
%TO.C,J42*%
X203216667Y-102362000D03*
D11*
X205756667Y-102362000D03*
X208296667Y-102362000D03*
X210836667Y-102362000D03*
X213376667Y-102362000D03*
X215916667Y-102362000D03*
X218456667Y-102362000D03*
%TD*%
D10*
%TO.C,J21*%
X199708414Y-212989987D03*
D11*
X199708414Y-215529987D03*
%TD*%
D10*
%TO.C,J29*%
X58865414Y-212989987D03*
D11*
X58865414Y-215529987D03*
%TD*%
D10*
%TO.C,J20*%
X176213414Y-212989987D03*
D11*
X176213414Y-215529987D03*
%TD*%
D10*
%TO.C,J10*%
X114595667Y-42672000D03*
D11*
X114595667Y-45212000D03*
%TD*%
D17*
%TO.C,Q18*%
X123130876Y-191570812D03*
D18*
X125670876Y-191570812D03*
X128210876Y-191570812D03*
%TD*%
D17*
%TO.C,Q29*%
X195538114Y-169809987D03*
D18*
X198078114Y-169809987D03*
X200618114Y-169809987D03*
%TD*%
D10*
%TO.C,J37*%
X246104001Y-102825836D03*
D11*
X246104001Y-100285836D03*
%TD*%
D17*
%TO.C,Q23*%
X77053543Y-169809987D03*
D18*
X79593543Y-169809987D03*
X82133543Y-169809987D03*
%TD*%
D10*
%TO.C,J5*%
X128794667Y-113284000D03*
D11*
X128794667Y-115824000D03*
%TD*%
D10*
%TO.C,J24*%
X120079414Y-142377987D03*
D11*
X120079414Y-144917987D03*
%TD*%
D17*
%TO.C,Q19*%
X146169543Y-191570812D03*
D18*
X148709543Y-191570812D03*
X151249543Y-191570812D03*
%TD*%
D10*
%TO.C,J18*%
X129223414Y-212989987D03*
D11*
X129223414Y-215529987D03*
%TD*%
D10*
%TO.C,J14*%
X222651834Y-113284000D03*
D11*
X222651834Y-115824000D03*
%TD*%
D10*
%TO.C,J3*%
X81796333Y-113284000D03*
D11*
X81796333Y-115824000D03*
%TD*%
D17*
%TO.C,Q20*%
X169208210Y-191570812D03*
D18*
X171748210Y-191570812D03*
X174288210Y-191570812D03*
%TD*%
D17*
%TO.C,Q30*%
X215285543Y-169809987D03*
D18*
X217825543Y-169809987D03*
X220365543Y-169809987D03*
%TD*%
D10*
%TO.C,J8*%
X44466667Y-42672000D03*
D11*
X44466667Y-45212000D03*
%TD*%
D10*
%TO.C,J11*%
X140999167Y-42672000D03*
D11*
X140999167Y-45212000D03*
%TD*%
D17*
%TO.C,Q17*%
X100092210Y-191570812D03*
D18*
X102632210Y-191570812D03*
X105172210Y-191570812D03*
%TD*%
D14*
%TO.C,C8*%
X257557225Y-112903000D03*
D15*
X255557225Y-112903000D03*
%TD*%
D17*
%TO.C,Q25*%
X116548400Y-169809987D03*
D18*
X119088400Y-169809987D03*
X121628400Y-169809987D03*
%TD*%
D10*
%TO.C,J1*%
X34798000Y-113284000D03*
D11*
X34798000Y-115824000D03*
%TD*%
D17*
%TO.C,Q4*%
X101489667Y-92898000D03*
D18*
X104029667Y-92898000D03*
X106569667Y-92898000D03*
%TD*%
D10*
%TO.C,J6*%
X152293833Y-113284000D03*
D11*
X152293833Y-115824000D03*
%TD*%
D10*
%TO.C,J23*%
X91877081Y-142377987D03*
D11*
X91877081Y-144917987D03*
%TD*%
D10*
%TO.C,J45*%
X50383543Y-154486812D03*
D11*
X47843543Y-154486812D03*
X45303543Y-154486812D03*
X42763543Y-154486812D03*
X40223543Y-154486812D03*
X37683543Y-154486812D03*
X35143543Y-154486812D03*
%TD*%
D10*
%TO.C,J12*%
X167402667Y-42672000D03*
D11*
X167402667Y-45212000D03*
%TD*%
D10*
%TO.C,J19*%
X152718414Y-212989987D03*
D11*
X152718414Y-215529987D03*
%TD*%
D17*
%TO.C,Q22*%
X215285543Y-191570812D03*
D18*
X217825543Y-191570812D03*
X220365543Y-191570812D03*
%TD*%
D10*
%TO.C,J43*%
X294615000Y-158613000D03*
D11*
X294615000Y-156073000D03*
X294615000Y-153533000D03*
X294615000Y-150993000D03*
X294615000Y-148453000D03*
X294615000Y-145913000D03*
X294615000Y-143373000D03*
X294615000Y-140833000D03*
X294615000Y-138293000D03*
X294615000Y-135753000D03*
X294615000Y-133213000D03*
X294615000Y-130673000D03*
X294615000Y-128133000D03*
X294615000Y-125593000D03*
X294615000Y-123053000D03*
X294615000Y-120513000D03*
X294615000Y-117973000D03*
X294615000Y-115433000D03*
X294615000Y-112893000D03*
X294615000Y-110353000D03*
X294615000Y-107813000D03*
X294615000Y-105273000D03*
X294615000Y-102733000D03*
X294615000Y-100193000D03*
%TD*%
D10*
%TO.C,J9*%
X72685667Y-42692000D03*
D11*
X72685667Y-45232000D03*
%TD*%
D21*
%TO.C,J38*%
X36413543Y-176250812D03*
D22*
X36413543Y-173750812D03*
X36413543Y-171250812D03*
%TD*%
D17*
%TO.C,Q6*%
X144077000Y-92898000D03*
D18*
X146617000Y-92898000D03*
X149157000Y-92898000D03*
%TD*%
D10*
%TO.C,J46*%
X282702000Y-168021000D03*
D11*
X285242000Y-168021000D03*
X287782000Y-168021000D03*
X290322000Y-168021000D03*
X292862000Y-168021000D03*
X295402000Y-168021000D03*
X297942000Y-168021000D03*
%TD*%
D17*
%TO.C,Q8*%
X37608667Y-70104000D03*
D18*
X40148667Y-70104000D03*
X42688667Y-70104000D03*
%TD*%
D17*
%TO.C,Q9*%
X55860381Y-70104000D03*
D18*
X58400381Y-70104000D03*
X60940381Y-70104000D03*
%TD*%
D17*
%TO.C,Q11*%
X92363810Y-70104000D03*
D18*
X94903810Y-70104000D03*
X97443810Y-70104000D03*
%TD*%
D10*
%TO.C,J15*%
X208821334Y-42672000D03*
D11*
X208821334Y-45212000D03*
%TD*%
D17*
%TO.C,Q14*%
X147118953Y-70104000D03*
D18*
X149658953Y-70104000D03*
X152198953Y-70104000D03*
%TD*%
D17*
%TO.C,Q5*%
X122783334Y-92898000D03*
D18*
X125323334Y-92898000D03*
X127863334Y-92898000D03*
%TD*%
D10*
%TO.C,J2*%
X58297167Y-113284000D03*
D11*
X58297167Y-115824000D03*
%TD*%
D17*
%TO.C,Q2*%
X58902334Y-92898000D03*
D18*
X61442334Y-92898000D03*
X63982334Y-92898000D03*
%TD*%
D17*
%TO.C,Q7*%
X165370667Y-92898000D03*
D18*
X167910667Y-92898000D03*
X170450667Y-92898000D03*
%TD*%
D10*
%TO.C,J7*%
X175793000Y-113284000D03*
D11*
X175793000Y-115824000D03*
%TD*%
D17*
%TO.C,Q1*%
X37608667Y-92898000D03*
D18*
X40148667Y-92898000D03*
X42688667Y-92898000D03*
%TD*%
D10*
%TO.C,J28*%
X50500081Y-142397987D03*
D11*
X50500081Y-144937987D03*
%TD*%
D10*
%TO.C,J13*%
X199152667Y-113284000D03*
D11*
X199152667Y-115824000D03*
%TD*%
D17*
%TO.C,Q10*%
X74112096Y-70104000D03*
D18*
X76652096Y-70104000D03*
X79192096Y-70104000D03*
%TD*%
D17*
%TO.C,Q27*%
X156043257Y-169809987D03*
D18*
X158583257Y-169809987D03*
X161123257Y-169809987D03*
%TD*%
D10*
%TO.C,J47*%
X261874000Y-168021000D03*
D11*
X259334000Y-168021000D03*
X256794000Y-168021000D03*
X254254000Y-168021000D03*
X251714000Y-168021000D03*
X249174000Y-168021000D03*
X246634000Y-168021000D03*
%TD*%
D23*
%TO.C,J40*%
X218964667Y-54610000D03*
D22*
X218964667Y-57110000D03*
X218964667Y-59610000D03*
%TD*%
D10*
%TO.C,J27*%
X214821414Y-142377987D03*
D11*
X214821414Y-144917987D03*
%TD*%
D17*
%TO.C,Q12*%
X110615524Y-70104000D03*
D18*
X113155524Y-70104000D03*
X115695524Y-70104000D03*
%TD*%
D17*
%TO.C,Q24*%
X96800972Y-169809987D03*
D18*
X99340972Y-169809987D03*
X101880972Y-169809987D03*
%TD*%
D17*
%TO.C,Q28*%
X175790686Y-169809987D03*
D18*
X178330686Y-169809987D03*
X180870686Y-169809987D03*
%TD*%
D17*
%TO.C,Q16*%
X77053543Y-191570812D03*
D18*
X79593543Y-191570812D03*
X82133543Y-191570812D03*
%TD*%
D10*
%TO.C,J35*%
X42763543Y-159820812D03*
D11*
X40223543Y-159820812D03*
X37683543Y-159820812D03*
X35143543Y-159820812D03*
%TD*%
D17*
%TO.C,Q3*%
X80196000Y-92898000D03*
D18*
X82736000Y-92898000D03*
X85276000Y-92898000D03*
%TD*%
D20*
%TO.C,J32*%
X35133543Y-184966812D03*
D19*
X47833543Y-202746812D03*
D20*
X47833543Y-200206812D03*
X47833543Y-197666812D03*
X47833543Y-195126812D03*
X47833543Y-192586812D03*
X47833543Y-190046812D03*
X47833543Y-187506812D03*
X47833543Y-184966812D03*
X35133543Y-187506812D03*
X35133543Y-190046812D03*
X35133543Y-192586812D03*
X35133543Y-195126812D03*
X35133543Y-197666812D03*
X35133543Y-200206812D03*
X35133543Y-202746812D03*
%TD*%
D17*
%TO.C,Q15*%
X165370667Y-70104000D03*
D18*
X167910667Y-70104000D03*
X170450667Y-70104000D03*
%TD*%
M02*
