%TF.GenerationSoftware,KiCad,Pcbnew,9.0.7*%
%TF.CreationDate,2026-02-26T16:43:08-06:00*%
%TF.ProjectId,Vocal2Piano,566f6361-6c32-4506-9961-6e6f2e6b6963,v4.0*%
%TF.SameCoordinates,Original*%
%TF.FileFunction,Soldermask,Top*%
%TF.FilePolarity,Negative*%
%FSLAX46Y46*%
G04 Gerber Fmt 4.6, Leading zero omitted, Abs format (unit mm)*
G04 Created by KiCad (PCBNEW 9.0.7) date 2026-02-26 16:43:08*
%MOMM*%
%LPD*%
G01*
G04 APERTURE LIST*
G04 Aperture macros list*
%AMRoundRect*
0 Rectangle with rounded corners*
0 $1 Rounding radius*
0 $2 $3 $4 $5 $6 $7 $8 $9 X,Y pos of 4 corners*
0 Add a 4 corners polygon primitive as box body*
4,1,4,$2,$3,$4,$5,$6,$7,$8,$9,$2,$3,0*
0 Add four circle primitives for the rounded corners*
1,1,$1+$1,$2,$3*
1,1,$1+$1,$4,$5*
1,1,$1+$1,$6,$7*
1,1,$1+$1,$8,$9*
0 Add four rect primitives between the rounded corners*
20,1,$1+$1,$2,$3,$4,$5,0*
20,1,$1+$1,$4,$5,$6,$7,0*
20,1,$1+$1,$6,$7,$8,$9,0*
20,1,$1+$1,$8,$9,$2,$3,0*%
G04 Aperture macros list end*
%ADD10C,0.000000*%
%ADD11R,2.200000X1.500000*%
%ADD12R,1.700000X1.700000*%
%ADD13C,1.700000*%
%ADD14RoundRect,0.250000X-0.262500X-0.450000X0.262500X-0.450000X0.262500X0.450000X-0.262500X0.450000X0*%
%ADD15RoundRect,0.250000X-0.250000X-0.475000X0.250000X-0.475000X0.250000X0.475000X-0.250000X0.475000X0*%
%ADD16C,1.404000*%
%ADD17RoundRect,0.102000X0.600000X-0.600000X0.600000X0.600000X-0.600000X0.600000X-0.600000X-0.600000X0*%
%ADD18RoundRect,0.250000X0.550000X0.550000X-0.550000X0.550000X-0.550000X-0.550000X0.550000X-0.550000X0*%
%ADD19C,1.600000*%
%ADD20RoundRect,0.250000X1.400000X1.000000X-1.400000X1.000000X-1.400000X-1.000000X1.400000X-1.000000X0*%
%ADD21RoundRect,0.102000X0.600000X0.600000X-0.600000X0.600000X-0.600000X-0.600000X0.600000X-0.600000X0*%
%ADD22RoundRect,0.250000X0.650000X-1.000000X0.650000X1.000000X-0.650000X1.000000X-0.650000X-1.000000X0*%
%ADD23R,1.905000X2.000000*%
%ADD24O,1.905000X2.000000*%
%ADD25RoundRect,0.250000X0.325000X0.650000X-0.325000X0.650000X-0.325000X-0.650000X0.325000X-0.650000X0*%
%ADD26R,1.600000X1.600000*%
%ADD27O,1.600000X1.600000*%
%ADD28O,1.450000X0.599999*%
%ADD29R,1.549999X0.599999*%
%ADD30RoundRect,0.250000X0.262500X0.450000X-0.262500X0.450000X-0.262500X-0.450000X0.262500X-0.450000X0*%
%ADD31RoundRect,0.250000X0.725000X-0.600000X0.725000X0.600000X-0.725000X0.600000X-0.725000X-0.600000X0*%
%ADD32O,1.950000X1.700000*%
%ADD33RoundRect,0.218750X-0.218750X-0.256250X0.218750X-0.256250X0.218750X0.256250X-0.218750X0.256250X0*%
%ADD34RoundRect,0.250000X-0.725000X0.600000X-0.725000X-0.600000X0.725000X-0.600000X0.725000X0.600000X0*%
G04 APERTURE END LIST*
D10*
%TO.C,U5*%
G36*
X249204000Y-117246999D02*
G01*
X246604000Y-117246999D01*
X246604000Y-114147001D01*
X249204000Y-114147001D01*
X249204000Y-117246999D01*
G37*
%TD*%
D11*
%TO.C,L1*%
X256794000Y-99441000D03*
X256794000Y-105841000D03*
%TD*%
D12*
%TO.C,J17*%
X105728414Y-212989987D03*
D13*
X105728414Y-215529987D03*
%TD*%
D14*
%TO.C,R19*%
X53658418Y-198348767D03*
X55483418Y-198348767D03*
%TD*%
D15*
%TO.C,C4*%
X186697417Y-81715000D03*
X188597417Y-81715000D03*
%TD*%
D14*
%TO.C,R14*%
X192912881Y-91992000D03*
X194737881Y-91992000D03*
%TD*%
%TO.C,R23*%
X67248168Y-198348767D03*
X69073168Y-198348767D03*
%TD*%
D16*
%TO.C,C1*%
X196358667Y-54142000D03*
D17*
X196358667Y-59142000D03*
%TD*%
D14*
%TO.C,R21*%
X67248168Y-190450101D03*
X69073168Y-190450101D03*
%TD*%
D18*
%TO.C,C11*%
X250190000Y-137878000D03*
D19*
X246690000Y-137878000D03*
%TD*%
D12*
%TO.C,J30*%
X35370414Y-212989987D03*
D13*
X35370414Y-215529987D03*
%TD*%
D14*
%TO.C,R25*%
X53977043Y-169098812D03*
X55802043Y-169098812D03*
%TD*%
D20*
%TO.C,D31*%
X247650000Y-128749000D03*
X247650000Y-121949000D03*
%TD*%
D16*
%TO.C,C3*%
X248746000Y-155321000D03*
D21*
X253746000Y-155321000D03*
%TD*%
D22*
%TO.C,D14*%
X171466667Y-58642000D03*
X171466667Y-54642000D03*
%TD*%
D14*
%TO.C,R9*%
X193263667Y-81685000D03*
X195088667Y-81685000D03*
%TD*%
D12*
%TO.C,J39*%
X286995000Y-158613000D03*
D13*
X286995000Y-156073000D03*
X286995000Y-153533000D03*
X286995000Y-150993000D03*
X286995000Y-148453000D03*
X286995000Y-145913000D03*
X286995000Y-143373000D03*
X286995000Y-140833000D03*
X286995000Y-138293000D03*
X286995000Y-135753000D03*
X286995000Y-133213000D03*
X286995000Y-130673000D03*
X286995000Y-128133000D03*
X286995000Y-125593000D03*
X286995000Y-123053000D03*
X286995000Y-120513000D03*
X286995000Y-117973000D03*
X286995000Y-115433000D03*
X286995000Y-112893000D03*
X286995000Y-110353000D03*
X286995000Y-107813000D03*
X286995000Y-105273000D03*
X286995000Y-102733000D03*
X286995000Y-100193000D03*
%TD*%
D22*
%TO.C,D24*%
X76291543Y-158010812D03*
X76291543Y-154010812D03*
%TD*%
D23*
%TO.C,Q13*%
X128867238Y-70104000D03*
D24*
X131407238Y-70104000D03*
X133947238Y-70104000D03*
%TD*%
D23*
%TO.C,Q21*%
X192246876Y-191570812D03*
D24*
X194786876Y-191570812D03*
X197326876Y-191570812D03*
%TD*%
D25*
%TO.C,C9*%
X258572000Y-134332800D03*
X255622000Y-134332800D03*
%TD*%
D22*
%TO.C,D21*%
X179887257Y-202968812D03*
X179887257Y-198968812D03*
%TD*%
D14*
%TO.C,R45*%
X170441310Y-80264000D03*
X172266310Y-80264000D03*
%TD*%
D23*
%TO.C,Q26*%
X136295829Y-169809987D03*
D24*
X138835829Y-169809987D03*
X141375829Y-169809987D03*
%TD*%
D14*
%TO.C,R58*%
X200049647Y-180648812D03*
X201874647Y-180648812D03*
%TD*%
D26*
%TO.C,J31*%
X202708667Y-82794000D03*
D27*
X205248667Y-82794000D03*
X207788667Y-82794000D03*
X210328667Y-82794000D03*
X212868667Y-82794000D03*
X215408667Y-82794000D03*
X217948667Y-82794000D03*
X220488667Y-82794000D03*
X220488667Y-70094000D03*
X217948667Y-70094000D03*
X215408667Y-70094000D03*
X212868667Y-70094000D03*
X210328667Y-70094000D03*
X207788667Y-70094000D03*
X205248667Y-70094000D03*
X202708667Y-70094000D03*
%TD*%
D12*
%TO.C,J41*%
X271755000Y-158613000D03*
D13*
X271755000Y-156073000D03*
X271755000Y-153533000D03*
X271755000Y-150993000D03*
X271755000Y-148453000D03*
X271755000Y-145913000D03*
X271755000Y-143373000D03*
X271755000Y-140833000D03*
X271755000Y-138293000D03*
X271755000Y-135753000D03*
X271755000Y-133213000D03*
X271755000Y-130673000D03*
X271755000Y-128133000D03*
X271755000Y-125593000D03*
X271755000Y-123053000D03*
X271755000Y-120513000D03*
X271755000Y-117973000D03*
X271755000Y-115433000D03*
X271755000Y-112893000D03*
X271755000Y-110353000D03*
X271755000Y-107813000D03*
X271755000Y-105273000D03*
X271755000Y-102733000D03*
X271755000Y-100193000D03*
%TD*%
D12*
%TO.C,J36*%
X203216667Y-92964000D03*
D13*
X205756667Y-92964000D03*
X208296667Y-92964000D03*
X210836667Y-92964000D03*
%TD*%
D14*
%TO.C,R26*%
X53977043Y-173108145D03*
X55802043Y-173108145D03*
%TD*%
D22*
%TO.C,D20*%
X159168114Y-202968812D03*
X159168114Y-198968812D03*
%TD*%
D14*
%TO.C,R50*%
X116766578Y-180648812D03*
X118591578Y-180648812D03*
%TD*%
D12*
%TO.C,J4*%
X105295500Y-113284000D03*
D13*
X105295500Y-115824000D03*
%TD*%
D14*
%TO.C,R11*%
X180206167Y-96031333D03*
X182031167Y-96031333D03*
%TD*%
%TO.C,R35*%
X74183351Y-80264000D03*
X76008351Y-80264000D03*
%TD*%
D16*
%TO.C,C2*%
X62067543Y-154566812D03*
D17*
X62067543Y-159566812D03*
%TD*%
D12*
%TO.C,J25*%
X161989414Y-142377987D03*
D13*
X161989414Y-144917987D03*
%TD*%
D12*
%TO.C,J22*%
X223203414Y-212989987D03*
D13*
X223203414Y-215529987D03*
%TD*%
D12*
%TO.C,J16*%
X82233414Y-212989987D03*
D13*
X82233414Y-215529987D03*
%TD*%
D14*
%TO.C,R4*%
X180206167Y-77645667D03*
X182031167Y-77645667D03*
%TD*%
D22*
%TO.C,D13*%
X149030000Y-58642000D03*
X149030000Y-54642000D03*
%TD*%
D15*
%TO.C,C5*%
X186522024Y-104140000D03*
X188422024Y-104140000D03*
%TD*%
D12*
%TO.C,J26*%
X188405414Y-142377987D03*
D13*
X188405414Y-144917987D03*
%TD*%
D12*
%TO.C,J44*%
X264110000Y-158613000D03*
D13*
X264110000Y-156073000D03*
X264110000Y-153533000D03*
X264110000Y-150993000D03*
X264110000Y-148453000D03*
X264110000Y-145913000D03*
X264110000Y-143373000D03*
X264110000Y-140833000D03*
X264110000Y-138293000D03*
X264110000Y-135753000D03*
X264110000Y-133213000D03*
X264110000Y-130673000D03*
X264110000Y-128133000D03*
X264110000Y-125593000D03*
X264110000Y-123053000D03*
X264110000Y-120513000D03*
X264110000Y-117973000D03*
X264110000Y-115433000D03*
X264110000Y-112893000D03*
X264110000Y-110353000D03*
X264110000Y-107813000D03*
X264110000Y-105273000D03*
X264110000Y-102733000D03*
X264110000Y-100193000D03*
%TD*%
D22*
%TO.C,D12*%
X126593334Y-58642000D03*
X126593334Y-54642000D03*
%TD*%
D14*
%TO.C,R28*%
X53977043Y-181186812D03*
X55802043Y-181186812D03*
%TD*%
D15*
%TO.C,C7*%
X60609543Y-181156812D03*
X62509543Y-181156812D03*
%TD*%
D14*
%TO.C,R31*%
X67248168Y-177177479D03*
X69073168Y-177177479D03*
%TD*%
D22*
%TO.C,D19*%
X138448972Y-202968812D03*
X138448972Y-198968812D03*
%TD*%
%TO.C,D5*%
X113663524Y-104362000D03*
X113663524Y-100362000D03*
%TD*%
D12*
%TO.C,J42*%
X203216667Y-102362000D03*
D13*
X205756667Y-102362000D03*
X208296667Y-102362000D03*
X210836667Y-102362000D03*
X213376667Y-102362000D03*
X215916667Y-102362000D03*
X218456667Y-102362000D03*
%TD*%
D14*
%TO.C,R7*%
X193263667Y-73606333D03*
X195088667Y-73606333D03*
%TD*%
%TO.C,R24*%
X67248168Y-202388101D03*
X69073168Y-202388101D03*
%TD*%
%TO.C,R38*%
X103060739Y-80264000D03*
X104885739Y-80264000D03*
%TD*%
D28*
%TO.C,U6*%
X58669419Y-190202101D03*
X58669419Y-191472101D03*
X58669419Y-192742101D03*
X58669419Y-194012101D03*
X58669419Y-195282101D03*
X58669419Y-196552101D03*
X58669419Y-197822101D03*
X58669419Y-199092101D03*
X64119418Y-199092101D03*
X64119418Y-197822101D03*
X64119418Y-196552101D03*
X64119418Y-195282101D03*
X64119418Y-194012101D03*
X64119418Y-192742101D03*
X64119418Y-191472101D03*
X64119418Y-190202101D03*
%TD*%
D12*
%TO.C,J21*%
X199708414Y-212989987D03*
D13*
X199708414Y-215529987D03*
%TD*%
D12*
%TO.C,J29*%
X58865414Y-212989987D03*
D13*
X58865414Y-215529987D03*
%TD*%
D29*
%TO.C,U5*%
X245204000Y-113792000D03*
X245204000Y-115062000D03*
X245204000Y-116332000D03*
X245204000Y-117602000D03*
X250604000Y-117602000D03*
X250604000Y-116332000D03*
X250604000Y-115062000D03*
X250604000Y-113792000D03*
%TD*%
D12*
%TO.C,J20*%
X176213414Y-212989987D03*
D13*
X176213414Y-215529987D03*
%TD*%
D14*
%TO.C,R5*%
X180206167Y-81685000D03*
X182031167Y-81685000D03*
%TD*%
D12*
%TO.C,J10*%
X114595667Y-42672000D03*
D13*
X114595667Y-45212000D03*
%TD*%
D14*
%TO.C,R17*%
X53635668Y-190450101D03*
X55460668Y-190450101D03*
%TD*%
%TO.C,R6*%
X193263667Y-69567000D03*
X195088667Y-69567000D03*
%TD*%
%TO.C,R44*%
X160815514Y-80264000D03*
X162640514Y-80264000D03*
%TD*%
%TO.C,R29*%
X67248168Y-169098812D03*
X69073168Y-169098812D03*
%TD*%
D23*
%TO.C,Q18*%
X123130876Y-191570812D03*
D24*
X125670876Y-191570812D03*
X128210876Y-191570812D03*
%TD*%
D23*
%TO.C,Q29*%
X195538114Y-169809987D03*
D24*
X198078114Y-169809987D03*
X200618114Y-169809987D03*
%TD*%
D12*
%TO.C,J37*%
X246104001Y-102825836D03*
D13*
X246104001Y-100285836D03*
%TD*%
D30*
%TO.C,R61*%
X258629500Y-147320600D03*
X256804500Y-147320600D03*
%TD*%
D14*
%TO.C,R53*%
X147997729Y-180648812D03*
X149822729Y-180648812D03*
%TD*%
%TO.C,R40*%
X122312330Y-80264000D03*
X124137330Y-80264000D03*
%TD*%
%TO.C,R41*%
X131938126Y-80264000D03*
X133763126Y-80264000D03*
%TD*%
%TO.C,R63*%
X256804500Y-121285000D03*
X258629500Y-121285000D03*
%TD*%
%TO.C,R55*%
X168818496Y-180648812D03*
X170643496Y-180648812D03*
%TD*%
%TO.C,R52*%
X137587345Y-180648812D03*
X139412345Y-180648812D03*
%TD*%
%TO.C,R42*%
X141563922Y-80264000D03*
X143388922Y-80264000D03*
%TD*%
%TO.C,R1*%
X180206167Y-69567000D03*
X182031167Y-69567000D03*
%TD*%
%TO.C,R8*%
X193263667Y-77645667D03*
X195088667Y-77645667D03*
%TD*%
%TO.C,R3*%
X180206167Y-73606333D03*
X182031167Y-73606333D03*
%TD*%
D23*
%TO.C,Q23*%
X77053543Y-169809987D03*
D24*
X79593543Y-169809987D03*
X82133543Y-169809987D03*
%TD*%
D28*
%TO.C,U3*%
X184565382Y-91894000D03*
X184565382Y-93164000D03*
X184565382Y-94434000D03*
X184565382Y-95704000D03*
X184565382Y-96974000D03*
X184565382Y-98244000D03*
X184565382Y-99514000D03*
X184565382Y-100784000D03*
X190015381Y-100784000D03*
X190015381Y-99514000D03*
X190015381Y-98244000D03*
X190015381Y-96974000D03*
X190015381Y-95704000D03*
X190015381Y-94434000D03*
X190015381Y-93164000D03*
X190015381Y-91894000D03*
%TD*%
D12*
%TO.C,J5*%
X128794667Y-113284000D03*
D13*
X128794667Y-115824000D03*
%TD*%
D12*
%TO.C,J24*%
X120079414Y-142377987D03*
D13*
X120079414Y-144917987D03*
%TD*%
D23*
%TO.C,Q19*%
X146169543Y-191570812D03*
D24*
X148709543Y-191570812D03*
X151249543Y-191570812D03*
%TD*%
D12*
%TO.C,J18*%
X129223414Y-212989987D03*
D13*
X129223414Y-215529987D03*
%TD*%
D14*
%TO.C,R12*%
X180206167Y-100070667D03*
X182031167Y-100070667D03*
%TD*%
D12*
%TO.C,J14*%
X222651834Y-113284000D03*
D13*
X222651834Y-115824000D03*
%TD*%
D14*
%TO.C,R48*%
X95945810Y-180648812D03*
X97770810Y-180648812D03*
%TD*%
D12*
%TO.C,J3*%
X81796333Y-113284000D03*
D13*
X81796333Y-115824000D03*
%TD*%
D22*
%TO.C,D17*%
X97010686Y-202968812D03*
X97010686Y-198968812D03*
%TD*%
D23*
%TO.C,Q20*%
X169208210Y-191570812D03*
D24*
X171748210Y-191570812D03*
X174288210Y-191570812D03*
%TD*%
D22*
%TO.C,D26*%
X124636210Y-158010812D03*
X124636210Y-154010812D03*
%TD*%
D23*
%TO.C,Q30*%
X215285543Y-169809987D03*
D24*
X217825543Y-169809987D03*
X220365543Y-169809987D03*
%TD*%
D22*
%TO.C,D6*%
X132931238Y-104362000D03*
X132931238Y-100362000D03*
%TD*%
D12*
%TO.C,J8*%
X44466667Y-42672000D03*
D13*
X44466667Y-45212000D03*
%TD*%
D12*
%TO.C,J11*%
X140999167Y-42672000D03*
D13*
X140999167Y-45212000D03*
%TD*%
D23*
%TO.C,Q17*%
X100092210Y-191570812D03*
D24*
X102632210Y-191570812D03*
X105172210Y-191570812D03*
%TD*%
D14*
%TO.C,R43*%
X151189718Y-80264000D03*
X153014718Y-80264000D03*
%TD*%
%TO.C,R46*%
X75125043Y-180648812D03*
X76950043Y-180648812D03*
%TD*%
D18*
%TO.C,C8*%
X257557225Y-112903000D03*
D19*
X255557225Y-112903000D03*
%TD*%
D22*
%TO.C,D23*%
X221325543Y-202968812D03*
X221325543Y-198968812D03*
%TD*%
D28*
%TO.C,U2*%
X184997666Y-69469000D03*
X184997666Y-70739000D03*
X184997666Y-72009000D03*
X184997666Y-73279000D03*
X184997666Y-74549000D03*
X184997666Y-75819000D03*
X184997666Y-77089000D03*
X184997666Y-78359000D03*
X190447665Y-78359000D03*
X190447665Y-77089000D03*
X190447665Y-75819000D03*
X190447665Y-74549000D03*
X190447665Y-73279000D03*
X190447665Y-72009000D03*
X190447665Y-70739000D03*
X190447665Y-69469000D03*
%TD*%
D14*
%TO.C,R2*%
X35680167Y-80264000D03*
X37505167Y-80264000D03*
%TD*%
D22*
%TO.C,D16*%
X76291543Y-202968812D03*
X76291543Y-198968812D03*
%TD*%
D23*
%TO.C,Q25*%
X116548400Y-169809987D03*
D24*
X119088400Y-169809987D03*
X121628400Y-169809987D03*
%TD*%
D30*
%TO.C,R62*%
X258629500Y-140926700D03*
X256804500Y-140926700D03*
%TD*%
D12*
%TO.C,J1*%
X34798000Y-113284000D03*
D13*
X34798000Y-115824000D03*
%TD*%
D22*
%TO.C,D1*%
X36592667Y-104362000D03*
X36592667Y-100362000D03*
%TD*%
D14*
%TO.C,R49*%
X106356194Y-180648812D03*
X108181194Y-180648812D03*
%TD*%
D23*
%TO.C,Q4*%
X101489667Y-92898000D03*
D24*
X104029667Y-92898000D03*
X106569667Y-92898000D03*
%TD*%
D14*
%TO.C,R51*%
X127176961Y-180648812D03*
X129001961Y-180648812D03*
%TD*%
D12*
%TO.C,J6*%
X152293833Y-113284000D03*
D13*
X152293833Y-115824000D03*
%TD*%
D14*
%TO.C,R32*%
X45305963Y-80264000D03*
X47130963Y-80264000D03*
%TD*%
D12*
%TO.C,J23*%
X91877081Y-142377987D03*
D13*
X91877081Y-144917987D03*
%TD*%
D22*
%TO.C,D3*%
X75128096Y-104362000D03*
X75128096Y-100362000D03*
%TD*%
D12*
%TO.C,J45*%
X50383543Y-154486812D03*
D13*
X47843543Y-154486812D03*
X45303543Y-154486812D03*
X42763543Y-154486812D03*
X40223543Y-154486812D03*
X37683543Y-154486812D03*
X35143543Y-154486812D03*
%TD*%
D22*
%TO.C,D9*%
X59283334Y-58642000D03*
X59283334Y-54642000D03*
%TD*%
D14*
%TO.C,R34*%
X64557555Y-80264000D03*
X66382555Y-80264000D03*
%TD*%
%TO.C,R47*%
X85535427Y-180648812D03*
X87360427Y-180648812D03*
%TD*%
D12*
%TO.C,J12*%
X167402667Y-42672000D03*
D13*
X167402667Y-45212000D03*
%TD*%
D14*
%TO.C,R22*%
X67248168Y-194309434D03*
X69073168Y-194309434D03*
%TD*%
D22*
%TO.C,D30*%
X221325543Y-158010812D03*
X221325543Y-154010812D03*
%TD*%
D12*
%TO.C,J19*%
X152718414Y-212989987D03*
D13*
X152718414Y-215529987D03*
%TD*%
D23*
%TO.C,Q22*%
X215285543Y-191570812D03*
D24*
X217825543Y-191570812D03*
X220365543Y-191570812D03*
%TD*%
D12*
%TO.C,J43*%
X294615000Y-158613000D03*
D13*
X294615000Y-156073000D03*
X294615000Y-153533000D03*
X294615000Y-150993000D03*
X294615000Y-148453000D03*
X294615000Y-145913000D03*
X294615000Y-143373000D03*
X294615000Y-140833000D03*
X294615000Y-138293000D03*
X294615000Y-135753000D03*
X294615000Y-133213000D03*
X294615000Y-130673000D03*
X294615000Y-128133000D03*
X294615000Y-125593000D03*
X294615000Y-123053000D03*
X294615000Y-120513000D03*
X294615000Y-117973000D03*
X294615000Y-115433000D03*
X294615000Y-112893000D03*
X294615000Y-110353000D03*
X294615000Y-107813000D03*
X294615000Y-105273000D03*
X294615000Y-102733000D03*
X294615000Y-100193000D03*
%TD*%
D12*
%TO.C,J9*%
X72685667Y-42692000D03*
D13*
X72685667Y-45232000D03*
%TD*%
D22*
%TO.C,D29*%
X197153210Y-158010812D03*
X197153210Y-154010812D03*
%TD*%
D14*
%TO.C,R20*%
X53658418Y-202388101D03*
X55483418Y-202388101D03*
%TD*%
D31*
%TO.C,J38*%
X36413543Y-176250812D03*
D32*
X36413543Y-173750812D03*
X36413543Y-171250812D03*
%TD*%
D14*
%TO.C,R27*%
X53977043Y-177147478D03*
X55802043Y-177147478D03*
%TD*%
D22*
%TO.C,D18*%
X117729829Y-202968812D03*
X117729829Y-198968812D03*
%TD*%
D14*
%TO.C,R59*%
X210460030Y-180648812D03*
X212285030Y-180648812D03*
%TD*%
D23*
%TO.C,Q6*%
X144077000Y-92898000D03*
D24*
X146617000Y-92898000D03*
X149157000Y-92898000D03*
%TD*%
D12*
%TO.C,J46*%
X282702000Y-168021000D03*
D13*
X285242000Y-168021000D03*
X287782000Y-168021000D03*
X290322000Y-168021000D03*
X292862000Y-168021000D03*
X295402000Y-168021000D03*
X297942000Y-168021000D03*
%TD*%
D23*
%TO.C,Q8*%
X37608667Y-70104000D03*
D24*
X40148667Y-70104000D03*
X42688667Y-70104000D03*
%TD*%
D23*
%TO.C,Q9*%
X55860381Y-70104000D03*
D24*
X58400381Y-70104000D03*
X60940381Y-70104000D03*
%TD*%
D33*
%TO.C,D34*%
X245086501Y-109175836D03*
X246661501Y-109175836D03*
%TD*%
D14*
%TO.C,R54*%
X158408112Y-180648812D03*
X160233112Y-180648812D03*
%TD*%
D23*
%TO.C,Q11*%
X92363810Y-70104000D03*
D24*
X94903810Y-70104000D03*
X97443810Y-70104000D03*
%TD*%
D12*
%TO.C,J15*%
X208821334Y-42672000D03*
D13*
X208821334Y-45212000D03*
%TD*%
D22*
%TO.C,D11*%
X104156667Y-58642000D03*
X104156667Y-54642000D03*
%TD*%
D23*
%TO.C,Q14*%
X147118953Y-70104000D03*
D24*
X149658953Y-70104000D03*
X152198953Y-70104000D03*
%TD*%
D23*
%TO.C,Q5*%
X122783334Y-92898000D03*
D24*
X125323334Y-92898000D03*
X127863334Y-92898000D03*
%TD*%
D28*
%TO.C,U4*%
X58756794Y-169000812D03*
X58756794Y-170270812D03*
X58756794Y-171540812D03*
X58756794Y-172810812D03*
X58756794Y-174080812D03*
X58756794Y-175350812D03*
X58756794Y-176620812D03*
X58756794Y-177890812D03*
X64206793Y-177890812D03*
X64206793Y-176620812D03*
X64206793Y-175350812D03*
X64206793Y-174080812D03*
X64206793Y-172810812D03*
X64206793Y-171540812D03*
X64206793Y-170270812D03*
X64206793Y-169000812D03*
%TD*%
D22*
%TO.C,D28*%
X172980876Y-158010812D03*
X172980876Y-154010812D03*
%TD*%
%TO.C,D27*%
X148808543Y-158010812D03*
X148808543Y-154010812D03*
%TD*%
D14*
%TO.C,R18*%
X53658418Y-194309434D03*
X55483418Y-194309434D03*
%TD*%
D12*
%TO.C,J2*%
X58297167Y-113284000D03*
D13*
X58297167Y-115824000D03*
%TD*%
D23*
%TO.C,Q2*%
X58902334Y-92898000D03*
D24*
X61442334Y-92898000D03*
X63982334Y-92898000D03*
%TD*%
D14*
%TO.C,R13*%
X180206167Y-104110000D03*
X182031167Y-104110000D03*
%TD*%
D23*
%TO.C,Q7*%
X165370667Y-92898000D03*
D24*
X167910667Y-92898000D03*
X170450667Y-92898000D03*
%TD*%
D12*
%TO.C,J7*%
X175793000Y-113284000D03*
D13*
X175793000Y-115824000D03*
%TD*%
D23*
%TO.C,Q1*%
X37608667Y-92898000D03*
D24*
X40148667Y-92898000D03*
X42688667Y-92898000D03*
%TD*%
D14*
%TO.C,R15*%
X192912881Y-96031333D03*
X194737881Y-96031333D03*
%TD*%
D12*
%TO.C,J28*%
X50500081Y-142397987D03*
D13*
X50500081Y-144937987D03*
%TD*%
D14*
%TO.C,R57*%
X189639263Y-180648812D03*
X191464263Y-180648812D03*
%TD*%
D22*
%TO.C,D4*%
X94395810Y-104362000D03*
X94395810Y-100362000D03*
%TD*%
%TO.C,D10*%
X81720000Y-58642000D03*
X81720000Y-54642000D03*
%TD*%
%TO.C,D8*%
X36846667Y-58642000D03*
X36846667Y-54642000D03*
%TD*%
D12*
%TO.C,J13*%
X199152667Y-113284000D03*
D13*
X199152667Y-115824000D03*
%TD*%
D14*
%TO.C,R60*%
X220870414Y-180648812D03*
X222695414Y-180648812D03*
%TD*%
D23*
%TO.C,Q10*%
X74112096Y-70104000D03*
D24*
X76652096Y-70104000D03*
X79192096Y-70104000D03*
%TD*%
D22*
%TO.C,D7*%
X152198953Y-104362000D03*
X152198953Y-100362000D03*
%TD*%
D23*
%TO.C,Q27*%
X156043257Y-169809987D03*
D24*
X158583257Y-169809987D03*
X161123257Y-169809987D03*
%TD*%
D14*
%TO.C,R10*%
X180206167Y-91992000D03*
X182031167Y-91992000D03*
%TD*%
%TO.C,R16*%
X192912881Y-100070667D03*
X194737881Y-100070667D03*
%TD*%
D22*
%TO.C,D15*%
X171466667Y-104330000D03*
X171466667Y-100330000D03*
%TD*%
%TO.C,D25*%
X100463876Y-158010812D03*
X100463876Y-154010812D03*
%TD*%
D12*
%TO.C,J47*%
X261874000Y-168021000D03*
D13*
X259334000Y-168021000D03*
X256794000Y-168021000D03*
X254254000Y-168021000D03*
X251714000Y-168021000D03*
X249174000Y-168021000D03*
X246634000Y-168021000D03*
%TD*%
D34*
%TO.C,J40*%
X218964667Y-54610000D03*
D32*
X218964667Y-57110000D03*
X218964667Y-59610000D03*
%TD*%
D22*
%TO.C,D2*%
X55860381Y-104362000D03*
X55860381Y-100362000D03*
%TD*%
D15*
%TO.C,C10*%
X256747000Y-127708900D03*
X258647000Y-127708900D03*
%TD*%
D12*
%TO.C,J27*%
X214821414Y-142377987D03*
D13*
X214821414Y-144917987D03*
%TD*%
D14*
%TO.C,R30*%
X67248168Y-173083479D03*
X69073168Y-173083479D03*
%TD*%
D23*
%TO.C,Q12*%
X110615524Y-70104000D03*
D24*
X113155524Y-70104000D03*
X115695524Y-70104000D03*
%TD*%
D14*
%TO.C,R56*%
X179228879Y-180648812D03*
X181053879Y-180648812D03*
%TD*%
D23*
%TO.C,Q24*%
X96800972Y-169809987D03*
D24*
X99340972Y-169809987D03*
X101880972Y-169809987D03*
%TD*%
D23*
%TO.C,Q28*%
X175790686Y-169809987D03*
D24*
X178330686Y-169809987D03*
X180870686Y-169809987D03*
%TD*%
D23*
%TO.C,Q16*%
X77053543Y-191570812D03*
D24*
X79593543Y-191570812D03*
X82133543Y-191570812D03*
%TD*%
D14*
%TO.C,R36*%
X83809147Y-80264000D03*
X85634147Y-80264000D03*
%TD*%
D15*
%TO.C,C6*%
X60478918Y-202448101D03*
X62378918Y-202448101D03*
%TD*%
D14*
%TO.C,R37*%
X93434943Y-80264000D03*
X95259943Y-80264000D03*
%TD*%
%TO.C,R33*%
X54931759Y-80264000D03*
X56756759Y-80264000D03*
%TD*%
%TO.C,R39*%
X112686534Y-80264000D03*
X114511534Y-80264000D03*
%TD*%
D22*
%TO.C,D22*%
X200606400Y-202968812D03*
X200606400Y-198968812D03*
%TD*%
D12*
%TO.C,J35*%
X42763543Y-159820812D03*
D13*
X40223543Y-159820812D03*
X37683543Y-159820812D03*
X35143543Y-159820812D03*
%TD*%
D23*
%TO.C,Q3*%
X80196000Y-92898000D03*
D24*
X82736000Y-92898000D03*
X85276000Y-92898000D03*
%TD*%
D27*
%TO.C,J32*%
X35133543Y-184966812D03*
D26*
X47833543Y-202746812D03*
D27*
X47833543Y-200206812D03*
X47833543Y-197666812D03*
X47833543Y-195126812D03*
X47833543Y-192586812D03*
X47833543Y-190046812D03*
X47833543Y-187506812D03*
X47833543Y-184966812D03*
X35133543Y-187506812D03*
X35133543Y-190046812D03*
X35133543Y-192586812D03*
X35133543Y-195126812D03*
X35133543Y-197666812D03*
X35133543Y-200206812D03*
X35133543Y-202746812D03*
%TD*%
D23*
%TO.C,Q15*%
X165370667Y-70104000D03*
D24*
X167910667Y-70104000D03*
X170450667Y-70104000D03*
%TD*%
M02*
